<?xml version="1.0" encoding="UTF-8"?>
<svg xmlns="http://www.w3.org/2000/svg" viewBox="0 0 512 512">
  <defs>
    <clipPath id="lensClip">
      <circle cx="220" cy="200" r="120"/>
    </clipPath>
  </defs>

  <circle cx="220" cy="200" r="120" fill="white" stroke="#0B4EA2" stroke-width="18"/>
  <g clip-path="url(#lensClip)">
    <rect x="90" y="80" width="260" height="240" fill="#ffffff"/>
    <path d="M70 120 C140 90, 220 150, 350 110 L350 180 C250 160,180 200,70 170 Z" fill="#FFD8C2"/>
    <path d="M70 170 C160 150,250 220,350 180 L350 250 C250 240,180 270,70 240 Z" fill="#FFA27E"/>
    <path d="M70 250 C160 220,260 300,350 260 L350 330 L70 330 Z" fill="#0B4EA2"/>
    <g fill="#EF5350">
      <circle cx="135" cy="135" r="10"/><circle cx="185" cy="110" r="12"/>
      <circle cx="245" cy="140" r="10"/><circle cx="290" cy="125" r="11"/>
      <circle cx="170" cy="175" r="16"/><circle cx="270" cy="175" r="12"/>
      <circle cx="305" cy="225" r="14"/><circle cx="255" cy="250" r="10"/>
    </g>
    <g stroke="#ffffff" stroke-width="8" stroke-linecap="round" fill="none">
      <circle cx="145" cy="270" r="10"/><circle cx="205" cy="250" r="8"/>
      <circle cx="265" cy="280" r="8"/><circle cx="315" cy="290" r="8"/>
      <path d="M145 280 V325"/>
      <path d="M205 258 V325"/>
      <path d="M265 288 V325"/>
      <path d="M315 298 V325"/>
    </g>
  </g>

  <rect x="320" y="295" width="120" height="32" rx="16" fill="#0B4EA2" transform="rotate(40 320 295)"/>
</svg>
